<mxfile host="app.diagrams.net" agent="Mozilla/5.0 (Macintosh; Intel Mac OS X 10_15_7) AppleWebKit/537.36 (KHTML, like Gecko) Chrome/131.0.0.0 Safari/537.36" version="25.0.3">
  <diagram name="第 1 页" id="lSxsQTKsH0cl3HJqyxiH">
    <mxGraphModel dx="1306" dy="716" grid="1" gridSize="10" guides="1" tooltips="1" connect="1" arrows="1" fold="1" page="1" pageScale="1" pageWidth="827" pageHeight="1169" math="0" shadow="0">
      <root>
        <mxCell id="0" />
        <mxCell id="1" parent="0" />
        <mxCell id="vqYGN-tJOdZQyUECBCoU-2" value="" style="rounded=0;whiteSpace=wrap;html=1;dashed=1;" vertex="1" parent="1">
          <mxGeometry x="210" y="330" width="1080" height="660" as="geometry" />
        </mxCell>
        <mxCell id="vqYGN-tJOdZQyUECBCoU-3" value="外部模块&lt;br&gt;maven-module" style="rounded=0;whiteSpace=wrap;html=1;" vertex="1" parent="1">
          <mxGeometry x="770" y="210" width="120" height="60" as="geometry" />
        </mxCell>
        <mxCell id="vqYGN-tJOdZQyUECBCoU-4" value="前端&lt;br&gt;（小程序/web/app)" style="rounded=0;whiteSpace=wrap;html=1;" vertex="1" parent="1">
          <mxGeometry x="490" y="210" width="120" height="60" as="geometry" />
        </mxCell>
        <mxCell id="vqYGN-tJOdZQyUECBCoU-5" value="" style="rounded=0;whiteSpace=wrap;html=1;fillColor=#E6E6E6;" vertex="1" parent="1">
          <mxGeometry x="230" y="350" width="1050" height="610" as="geometry" />
        </mxCell>
        <mxCell id="vqYGN-tJOdZQyUECBCoU-6" value="API" style="rounded=0;whiteSpace=wrap;html=1;" vertex="1" parent="1">
          <mxGeometry x="770" y="360" width="120" height="60" as="geometry" />
        </mxCell>
        <mxCell id="vqYGN-tJOdZQyUECBCoU-7" value="Controller" style="rounded=0;whiteSpace=wrap;html=1;" vertex="1" parent="1">
          <mxGeometry x="500" y="360" width="120" height="60" as="geometry" />
        </mxCell>
        <mxCell id="vqYGN-tJOdZQyUECBCoU-8" value="" style="rounded=0;whiteSpace=wrap;html=1;dashed=1;" vertex="1" parent="1">
          <mxGeometry x="430" y="440" width="559" height="240" as="geometry" />
        </mxCell>
        <mxCell id="vqYGN-tJOdZQyUECBCoU-9" value="&lt;div style=&quot;background-color: rgb(30, 31, 34);&quot;&gt;&lt;pre style=&quot;font-family: &amp;quot;JetBrains Mono&amp;quot;, monospace;&quot;&gt;&lt;font&gt;&lt;span style=&quot;color: rgb(207, 142, 109);&quot;&gt;public &lt;/span&gt;&lt;font style=&quot;&quot; color=&quot;#bcbec4&quot;&gt;CommonResult&amp;lt;DeptRespDTO&amp;gt; &lt;/font&gt;&lt;span style=&quot;color: rgb(86, 168, 245);&quot;&gt;getDept&lt;/span&gt;&lt;font style=&quot;&quot; color=&quot;#bcbec4&quot;&gt;(Long id) {&lt;br&gt;    DeptDO dept = &lt;/font&gt;&lt;span style=&quot;color: rgb(199, 125, 187);&quot;&gt;deptService&lt;/span&gt;&lt;font style=&quot;&quot; color=&quot;#bcbec4&quot;&gt;.getDept(id);&lt;br&gt;    &lt;/font&gt;&lt;span style=&quot;color: rgb(207, 142, 109);&quot;&gt;return &lt;/span&gt;&lt;span style=&quot;font-style: italic;&quot;&gt;&lt;font color=&quot;#66cc00&quot;&gt;success&lt;/font&gt;&lt;/span&gt;&lt;font style=&quot;&quot; color=&quot;#bcbec4&quot;&gt;(BeanUtils.&lt;/font&gt;&lt;span style=&quot;color: rgb(188, 190, 196); font-style: italic;&quot;&gt;toBean&lt;/span&gt;&lt;font style=&quot;&quot; color=&quot;#bcbec4&quot;&gt;(dept, DeptRespDTO.&lt;/font&gt;&lt;span style=&quot;color: rgb(207, 142, 109);&quot;&gt;class&lt;/span&gt;&lt;font style=&quot;&quot; color=&quot;#bcbec4&quot;&gt;));&lt;br&gt;}&lt;/font&gt;&lt;/font&gt;&lt;/pre&gt;&lt;/div&gt;" style="rounded=0;whiteSpace=wrap;html=1;align=left;dashed=1;fillColor=#fff2cc;strokeColor=#d6b656;" vertex="1" parent="1">
          <mxGeometry x="449" y="452" width="520" height="90" as="geometry" />
        </mxCell>
        <mxCell id="vqYGN-tJOdZQyUECBCoU-10" value="&lt;div style=&quot;background-color: rgb(30, 31, 34);&quot;&gt;&lt;pre style=&quot;font-family: &amp;quot;JetBrains Mono&amp;quot;, monospace;&quot;&gt;&lt;font&gt;&lt;span style=&quot;color: rgb(207, 142, 109);&quot;&gt;public &lt;/span&gt;&lt;font style=&quot;&quot; color=&quot;#bcbec4&quot;&gt;CommonResult&amp;lt;DeptRespDTO&amp;gt; &lt;/font&gt;&lt;span style=&quot;color: rgb(86, 168, 245);&quot;&gt;getDept&lt;/span&gt;&lt;font style=&quot;&quot; color=&quot;#bcbec4&quot;&gt;(Long id) {&lt;br&gt;    DeptDO dept = &lt;/font&gt;&lt;span style=&quot;color: rgb(199, 125, 187);&quot;&gt;deptService&lt;/span&gt;&lt;font style=&quot;&quot; color=&quot;#bcbec4&quot;&gt;.getDept(id);&lt;br&gt;    &lt;/font&gt;&lt;span style=&quot;color: rgb(207, 142, 109);&quot;&gt;return &lt;/span&gt;&lt;span style=&quot;font-style: italic;&quot;&gt;&lt;font color=&quot;#ff0000&quot;&gt;error&lt;/font&gt;&lt;/span&gt;&lt;font style=&quot;&quot; color=&quot;#bcbec4&quot;&gt;(BAD_REQUEST);&lt;br&gt;}&lt;/font&gt;&lt;/font&gt;&lt;/pre&gt;&lt;/div&gt;" style="rounded=0;whiteSpace=wrap;html=1;align=left;dashed=1;fillColor=#f8cecc;strokeColor=#b85450;" vertex="1" parent="1">
          <mxGeometry x="449" y="574" width="520" height="90" as="geometry" />
        </mxCell>
        <mxCell id="vqYGN-tJOdZQyUECBCoU-11" value="" style="rounded=0;whiteSpace=wrap;html=1;" vertex="1" parent="1">
          <mxGeometry x="270" y="710" width="970" height="230" as="geometry" />
        </mxCell>
        <mxCell id="vqYGN-tJOdZQyUECBCoU-12" value="&lt;div style=&quot;background-color:#1e1f22;color:#bcbec4&quot;&gt;&lt;pre style=&quot;font-family: &amp;quot;JetBrains Mono&amp;quot;, monospace;&quot;&gt;&lt;pre style=&quot;font-family: &amp;quot;JetBrains Mono&amp;quot;, monospace;&quot;&gt;&lt;font style=&quot;font-size: 11px;&quot;&gt;&lt;span style=&quot;color: rgb(207, 142, 109);&quot;&gt;public static &lt;/span&gt;&amp;lt;&lt;span style=&quot;color: rgb(22, 186, 172);&quot;&gt;T&lt;/span&gt;&amp;gt; CommonResult&amp;lt;&lt;span style=&quot;color: rgb(22, 186, 172);&quot;&gt;T&lt;/span&gt;&amp;gt; &lt;span style=&quot;color: rgb(86, 168, 245);&quot;&gt;error&lt;/span&gt;(Integer code, String message) {&lt;br&gt;    CommonResult&amp;lt;&lt;span style=&quot;color: rgb(22, 186, 172);&quot;&gt;T&lt;/span&gt;&amp;gt; result = &lt;span style=&quot;color: rgb(207, 142, 109);&quot;&gt;new &lt;/span&gt;CommonResult&amp;lt;&amp;gt;();&lt;br&gt;    result.&lt;span style=&quot;color: rgb(199, 125, 187);&quot;&gt;code &lt;/span&gt;= code;&lt;br&gt;    result.&lt;span style=&quot;color: rgb(199, 125, 187);&quot;&gt;msg &lt;/span&gt;= message;&lt;br&gt;    &lt;span style=&quot;color: rgb(207, 142, 109);&quot;&gt;return &lt;/span&gt;result;&lt;br&gt;}&lt;/font&gt;&lt;/pre&gt;&lt;/pre&gt;&lt;/div&gt;" style="rounded=0;whiteSpace=wrap;html=1;align=left;" vertex="1" parent="1">
          <mxGeometry x="730" y="730" width="490" height="160" as="geometry" />
        </mxCell>
        <mxCell id="vqYGN-tJOdZQyUECBCoU-13" value="&lt;div style=&quot;background-color:#1e1f22;color:#bcbec4&quot;&gt;&lt;pre style=&quot;font-family: &amp;quot;JetBrains Mono&amp;quot;, monospace;&quot;&gt;&lt;font style=&quot;font-size: 11px;&quot;&gt;&lt;span style=&quot;color: rgb(207, 142, 109);&quot;&gt;public static &lt;/span&gt;&amp;lt;&lt;span style=&quot;color: rgb(22, 186, 172);&quot;&gt;T&lt;/span&gt;&amp;gt; CommonResult&amp;lt;&lt;span style=&quot;color: rgb(22, 186, 172);&quot;&gt;T&lt;/span&gt;&amp;gt; &lt;span style=&quot;color: rgb(86, 168, 245);&quot;&gt;success&lt;/span&gt;(&lt;span style=&quot;color: rgb(22, 186, 172);&quot;&gt;T &lt;/span&gt;data) {&lt;br&gt;    CommonResult&amp;lt;&lt;span style=&quot;color: rgb(22, 186, 172);&quot;&gt;T&lt;/span&gt;&amp;gt; result = &lt;span style=&quot;color: rgb(207, 142, 109);&quot;&gt;new &lt;/span&gt;CommonResult&amp;lt;&amp;gt;();&lt;br&gt;    result.&lt;span style=&quot;color: rgb(199, 125, 187);&quot;&gt;code &lt;/span&gt;= GlobalErrorCodeConstants.&lt;span style=&quot;color: rgb(199, 125, 187); font-style: italic;&quot;&gt;SUCCESS&lt;/span&gt;.getCode();&lt;br&gt;    result.&lt;span style=&quot;color: rgb(199, 125, 187);&quot;&gt;data &lt;/span&gt;= data;&lt;br&gt;    result.&lt;span style=&quot;color: rgb(199, 125, 187);&quot;&gt;msg &lt;/span&gt;= &lt;span style=&quot;color: rgb(106, 171, 115);&quot;&gt;&quot;&quot;&lt;/span&gt;;&lt;br&gt;    &lt;span style=&quot;color: rgb(207, 142, 109);&quot;&gt;return &lt;/span&gt;result;&lt;br&gt;}&lt;/font&gt;&lt;/pre&gt;&lt;/div&gt;" style="rounded=0;whiteSpace=wrap;html=1;align=left;" vertex="1" parent="1">
          <mxGeometry x="290" y="730" width="420" height="160" as="geometry" />
        </mxCell>
        <mxCell id="vqYGN-tJOdZQyUECBCoU-14" value="OR" style="text;html=1;align=center;verticalAlign=middle;whiteSpace=wrap;rounded=0;" vertex="1" parent="1">
          <mxGeometry x="439" y="545" width="60" height="30" as="geometry" />
        </mxCell>
        <mxCell id="vqYGN-tJOdZQyUECBCoU-15" value="" style="endArrow=classic;startArrow=classic;html=1;rounded=0;" edge="1" parent="1">
          <mxGeometry width="50" height="50" relative="1" as="geometry">
            <mxPoint x="550" y="520" as="sourcePoint" />
            <mxPoint x="600" y="470" as="targetPoint" />
          </mxGeometry>
        </mxCell>
        <mxCell id="vqYGN-tJOdZQyUECBCoU-16" value="" style="endArrow=classic;startArrow=classic;html=1;rounded=0;entryX=0.5;entryY=1;entryDx=0;entryDy=0;exitX=0.419;exitY=0.062;exitDx=0;exitDy=0;exitPerimeter=0;strokeColor=#00CC00;" edge="1" parent="1" source="vqYGN-tJOdZQyUECBCoU-7" target="vqYGN-tJOdZQyUECBCoU-4">
          <mxGeometry width="50" height="50" relative="1" as="geometry">
            <mxPoint x="380" y="415" as="sourcePoint" />
            <mxPoint x="430" y="365" as="targetPoint" />
          </mxGeometry>
        </mxCell>
        <mxCell id="vqYGN-tJOdZQyUECBCoU-17" value="&lt;font color=&quot;#006600&quot;&gt;ReqVO&lt;br&gt;ResVO&lt;/font&gt;" style="edgeLabel;html=1;align=center;verticalAlign=middle;resizable=0;points=[];" vertex="1" connectable="0" parent="vqYGN-tJOdZQyUECBCoU-16">
          <mxGeometry x="0.057" relative="1" as="geometry">
            <mxPoint as="offset" />
          </mxGeometry>
        </mxCell>
        <mxCell id="vqYGN-tJOdZQyUECBCoU-18" value="" style="endArrow=classic;startArrow=classic;html=1;rounded=0;entryX=0.5;entryY=1;entryDx=0;entryDy=0;exitX=0.5;exitY=0;exitDx=0;exitDy=0;strokeColor=#3333FF;" edge="1" parent="1" source="vqYGN-tJOdZQyUECBCoU-6" target="vqYGN-tJOdZQyUECBCoU-3">
          <mxGeometry width="50" height="50" relative="1" as="geometry">
            <mxPoint x="400" y="600" as="sourcePoint" />
            <mxPoint x="450" y="550" as="targetPoint" />
          </mxGeometry>
        </mxCell>
        <mxCell id="vqYGN-tJOdZQyUECBCoU-19" value="&lt;font color=&quot;#0000ff&quot;&gt;ReqDTO&lt;br&gt;ResDTO&lt;/font&gt;" style="edgeLabel;html=1;align=center;verticalAlign=middle;resizable=0;points=[];" vertex="1" connectable="0" parent="vqYGN-tJOdZQyUECBCoU-18">
          <mxGeometry x="0.1026" relative="1" as="geometry">
            <mxPoint as="offset" />
          </mxGeometry>
        </mxCell>
        <mxCell id="vqYGN-tJOdZQyUECBCoU-20" value="" style="endArrow=classic;startArrow=classic;html=1;rounded=0;entryX=0.5;entryY=1;entryDx=0;entryDy=0;exitX=0.722;exitY=0.035;exitDx=0;exitDy=0;exitPerimeter=0;strokeColor=#CC6600;" edge="1" parent="1" source="vqYGN-tJOdZQyUECBCoU-9" target="vqYGN-tJOdZQyUECBCoU-6">
          <mxGeometry width="50" height="50" relative="1" as="geometry">
            <mxPoint x="530" y="600" as="sourcePoint" />
            <mxPoint x="580" y="550" as="targetPoint" />
          </mxGeometry>
        </mxCell>
        <mxCell id="vqYGN-tJOdZQyUECBCoU-21" value="" style="endArrow=classic;startArrow=classic;html=1;rounded=0;entryX=0.5;entryY=1;entryDx=0;entryDy=0;exitX=0.237;exitY=0.024;exitDx=0;exitDy=0;exitPerimeter=0;strokeColor=#CC6600;" edge="1" parent="1" source="vqYGN-tJOdZQyUECBCoU-9" target="vqYGN-tJOdZQyUECBCoU-7">
          <mxGeometry width="50" height="50" relative="1" as="geometry">
            <mxPoint x="530" y="600" as="sourcePoint" />
            <mxPoint x="580" y="550" as="targetPoint" />
          </mxGeometry>
        </mxCell>
        <mxCell id="vqYGN-tJOdZQyUECBCoU-22" value="&lt;font style=&quot;font-size: 28px;&quot;&gt;接&lt;br&gt;入&lt;br&gt;层&lt;/font&gt;" style="text;html=1;align=center;verticalAlign=middle;whiteSpace=wrap;rounded=0;" vertex="1" parent="1">
          <mxGeometry x="280" y="515" width="60" height="30" as="geometry" />
        </mxCell>
        <mxCell id="vqYGN-tJOdZQyUECBCoU-23" value="" style="endArrow=classic;startArrow=classic;html=1;rounded=0;entryX=0.5;entryY=1;entryDx=0;entryDy=0;exitX=0.445;exitY=0;exitDx=0;exitDy=0;exitPerimeter=0;strokeColor=#FF0000;" edge="1" parent="1" source="vqYGN-tJOdZQyUECBCoU-11" target="vqYGN-tJOdZQyUECBCoU-8">
          <mxGeometry width="50" height="50" relative="1" as="geometry">
            <mxPoint x="640" y="710" as="sourcePoint" />
            <mxPoint x="690" y="660" as="targetPoint" />
          </mxGeometry>
        </mxCell>
        <mxCell id="vqYGN-tJOdZQyUECBCoU-24" value="通用结果返回" style="text;html=1;align=center;verticalAlign=middle;whiteSpace=wrap;rounded=0;fontColor=#009900;" vertex="1" parent="1">
          <mxGeometry x="430" y="860" width="100" height="30" as="geometry" />
        </mxCell>
        <mxCell id="vqYGN-tJOdZQyUECBCoU-25" value="&lt;font color=&quot;#cc0000&quot;&gt;通用错误返回&lt;/font&gt;" style="text;html=1;align=center;verticalAlign=middle;whiteSpace=wrap;rounded=0;fontColor=#009900;" vertex="1" parent="1">
          <mxGeometry x="940" y="860" width="100" height="30" as="geometry" />
        </mxCell>
        <mxCell id="vqYGN-tJOdZQyUECBCoU-26" value="LEO-Common-模块" style="text;html=1;align=center;verticalAlign=middle;whiteSpace=wrap;rounded=0;fontStyle=1;fontSize=14;" vertex="1" parent="1">
          <mxGeometry x="290" y="900" width="140" height="30" as="geometry" />
        </mxCell>
        <mxCell id="vqYGN-tJOdZQyUECBCoU-27" value="&lt;font color=&quot;#0066cc&quot;&gt;LEO-Common-模块&lt;/font&gt;" style="text;html=1;align=center;verticalAlign=middle;whiteSpace=wrap;rounded=0;fontStyle=1;fontSize=14;" vertex="1" parent="1">
          <mxGeometry x="230" y="960" width="140" height="30" as="geometry" />
        </mxCell>
      </root>
    </mxGraphModel>
  </diagram>
</mxfile>
